<svg width="18" height="18" viewBox="0 0 18 18" fill="none" xmlns="http://www.w3.org/2000/svg">
<path fill-rule="evenodd" clip-rule="evenodd" d="M15.75 2.8125C15.75 2.66332 15.6907 2.52024 15.5853 2.41475C15.4798 2.30926 15.3367 2.25 15.1875 2.25H8.43751C8.28832 2.25 8.14525 2.30926 8.03976 2.41475C7.93427 2.52024 7.87501 2.66332 7.87501 2.8125C7.87501 2.96168 7.93427 3.10476 8.03976 3.21025C8.14525 3.31574 8.28832 3.375 8.43751 3.375H13.8296L2.41426 14.7892C2.36196 14.8415 2.32047 14.9036 2.29217 14.972C2.26387 15.0403 2.2493 15.1135 2.2493 15.1875C2.2493 15.2615 2.26387 15.3347 2.29217 15.403C2.32047 15.4714 2.36196 15.5335 2.41426 15.5858C2.46656 15.638 2.52865 15.6795 2.59698 15.7078C2.66531 15.7361 2.73855 15.7507 2.81251 15.7507C2.88647 15.7507 2.95971 15.7361 3.02804 15.7078C3.09637 15.6795 3.15846 15.638 3.21076 15.5858L14.625 4.17037V9.5625C14.625 9.71168 14.6843 9.85476 14.7898 9.96025C14.8952 10.0657 15.0383 10.125 15.1875 10.125C15.3367 10.125 15.4798 10.0657 15.5853 9.96025C15.6907 9.85476 15.75 9.71168 15.75 9.5625V2.8125Z" fill="#B7926A"/>
</svg>
