<svg width="40" height="40" viewBox="0 0 40 40" fill="none" xmlns="http://www.w3.org/2000/svg">
<path d="M37.2562 2.97923C35.7187 2.05389 33.8458 1.98613 32.2438 2.79452L27.6374 5.12328C26.7687 5.56235 25.7313 5.5644 24.8625 5.12328L16.0895 0.687415C15.3645 0.320151 14.5687 0.137505 13.775 0.133402C13.7666 0.133402 13.7583 0.129395 13.75 0.129395C13.7416 0.129395 13.7333 0.133402 13.725 0.133402C12.9292 0.137505 12.1354 0.320151 11.4104 0.687415L4.22913 4.31906C1.74996 5.57268 0.208313 8.0902 0.208313 10.8847V31.7654C0.208313 33.6263 1.15625 35.3087 2.74375 36.2627C4.28333 37.1881 6.1562 37.2558 7.7562 36.4474L12.3625 34.1187C13.2292 33.6775 14.2666 33.6775 15.1374 34.1187L23.9104 38.5545C24.6313 38.9197 25.4229 39.1003 26.2146 39.1044C26.2271 39.1044 26.2375 39.1127 26.25 39.1127C26.2625 39.1127 26.2729 39.1065 26.2854 39.1044C27.0771 39.0983 27.8666 38.9177 28.5895 38.5545L35.7708 34.9229C38.25 33.6693 39.7916 31.1519 39.7916 28.3574V7.47671C39.7916 5.61782 38.8437 3.93535 37.2562 2.97923ZM11.4104 32.2947L6.80411 34.6233C5.8437 35.1117 4.75834 35.0707 3.83126 34.5126C2.86876 33.934 2.29165 32.9061 2.29165 31.7674V10.8867C2.29165 8.86366 3.39788 7.04792 5.18122 6.14514L12.3625 2.5135C12.4729 2.45811 12.5937 2.42931 12.7083 2.38828V31.8597C12.2625 31.9499 11.825 32.0854 11.4104 32.2947ZM16.0895 32.2947C15.6749 32.0854 15.2375 31.9499 14.7916 31.8597V2.38828C14.9062 2.42931 15.027 2.45811 15.1374 2.5135L23.9104 6.94937C24.325 7.15864 24.7625 7.29401 25.2083 7.38429V36.8557C25.0937 36.8146 24.9729 36.786 24.8625 36.7306L16.0895 32.2947ZM37.7083 28.3594C37.7083 30.3824 36.6021 32.1982 34.8187 33.1009L27.6374 36.7326C27.527 36.788 27.4062 36.8168 27.2916 36.8578V7.38642C27.7375 7.29614 28.1749 7.16065 28.5895 6.95137L33.1958 4.62274C34.1583 4.13442 35.2437 4.17536 36.1687 4.73344C37.1312 5.31203 37.7083 6.33999 37.7083 7.47871V28.3594Z" fill="#B7926A"/>
</svg>
